<svg xmlns="http://www.w3.org/2000/svg" width="240" height="240" viewBox="0 0 240 240">
  <defs>
    <linearGradient id="head" gradientUnits="userSpaceOnUse" x1="0" y1="52" x2="0" y2="170">
      <stop offset="0" stop-color="#FFFFFF"/><stop offset="1" stop-color="#E4E9F7"/>
    </linearGradient>
    <linearGradient id="visor" gradientUnits="userSpaceOnUse" x1="60" y1="80" x2="180" y2="140">
      <stop offset="0" stop-color="#2E3A5E"/><stop offset="1" stop-color="#1C2440"/>
    </linearGradient>
    <linearGradient id="body" gradientUnits="userSpaceOnUse" x1="0" y1="168" x2="0" y2="232">
      <stop offset="0" stop-color="#8EA2FF"/><stop offset="1" stop-color="#5C6CF0"/>
    </linearGradient>
  </defs>
  <ellipse cx="120" cy="230" rx="62" ry="7" fill="#DCE4F2"/>
  <!-- antenna -->
  <rect x="116" y="26" width="8" height="30" rx="4" fill="#B4C0E0"/>
  <circle cx="120" cy="24" r="11" fill="#9DB2FF"/>
  <circle cx="117" cy="21" r="3.5" fill="#FFFFFF" opacity="0.8"/>
  <!-- ears -->
  <rect x="38" y="96" width="18" height="40" rx="9" fill="#C9D3EA"/>
  <rect x="184" y="96" width="18" height="40" rx="9" fill="#C9D3EA"/>
  <!-- body -->
  <path d="M74 176 Q120 160 166 176 L174 222 Q120 236 66 222 Z" fill="url(#body)"/>
  <circle cx="120" cy="198" r="9" fill="#FFFFFF" opacity="0.85"/>
  <!-- head -->
  <rect x="50" y="52" width="140" height="118" rx="46" fill="url(#head)"/>
  <!-- visor -->
  <rect x="66" y="78" width="108" height="62" rx="31" fill="url(#visor)"/>
  <!-- eyes (smiling arcs) -->
  <path d="M90 112 q10 -14 20 0" stroke="#7FE0C2" stroke-width="7" fill="none" stroke-linecap="round"/>
  <path d="M130 112 q10 -14 20 0" stroke="#7FE0C2" stroke-width="7" fill="none" stroke-linecap="round"/>
  <path d="M108 126 q12 8 24 0" stroke="#9DB2FF" stroke-width="4" fill="none" stroke-linecap="round"/>
  <!-- cheeks -->
  <ellipse cx="80" cy="152" rx="9" ry="5" fill="#F0A9A0" opacity="0.35"/>
  <ellipse cx="160" cy="152" rx="9" ry="5" fill="#F0A9A0" opacity="0.35"/>
  <!-- sparkle -->
  <path d="M200 40 C203 52 207 56 219 59 C207 62 203 66 200 78 C197 66 193 62 181 59 C193 56 197 52 200 40 Z" fill="#B9C6FF"/>
</svg>
